<svg width="45" height="45" viewBox="0 0 45 45" fill="none" xmlns="http://www.w3.org/2000/svg">
<path fill-rule="evenodd" clip-rule="evenodd" d="M0 22.5C0 10.0713 10.0698 0 22.5 0C34.9287 0 45 10.0713 45 22.5C45 34.9287 34.9301 45 22.5 45C10.0713 45 0 34.9287 0 22.5ZM23.4259 30.4058C15.0388 30.4058 10.2566 24.6672 10.0604 15.1029H14.2785C14.4134 22.1167 17.5034 25.084 19.9557 25.6972V15.1029H23.9164V21.1479C26.3319 20.8904 28.8825 18.1316 29.7407 15.0906H33.6891C33.3672 16.6648 32.724 18.1556 31.7999 19.47C30.8759 20.7843 29.6906 21.8941 28.3184 22.7297C29.8497 23.4921 31.2022 24.5703 32.2864 25.8933C33.3707 27.2165 34.1623 28.7545 34.6087 30.4058H30.2557C29.3239 27.4997 26.9941 25.2435 23.9164 24.9369V30.4058H23.4259Z" fill="white"/>
</svg>
