<svg width="24" height="24" viewBox="0 0 24 24" fill="none" xmlns="http://www.w3.org/2000/svg">
<path d="M11.8879 0C5.44127 0 0.21875 5.22327 0.21875 11.6692C0.21875 18.1151 5.44202 23.3384 11.8879 23.3384C18.3346 23.3384 23.5571 18.1151 23.5571 11.6692C23.5571 5.22327 18.3338 0 11.8879 0ZM17.6194 7.99451L15.7041 17.0197C15.5626 17.6596 15.1816 17.8147 14.6501 17.5135L11.7328 15.3634L10.3258 16.7185C10.1707 16.8736 10.0389 17.0054 9.73779 17.0054L9.94482 14.0361L15.351 9.15164C15.5867 8.94461 15.2991 8.82717 14.9882 9.0342L8.30662 13.2404L5.42697 12.3415C4.80135 12.1442 4.78704 11.7159 5.55871 11.4147L16.8093 7.07604C17.3318 6.88782 17.788 7.20327 17.6186 7.99376L17.6194 7.99451Z" fill="#0E3FFF"/>
</svg>
