<svg width="24" height="24" viewBox="0 0 24 24" fill="none" xmlns="http://www.w3.org/2000/svg">
<path fill-rule="evenodd" clip-rule="evenodd" d="M0 11.6692C0 5.22327 5.22252 0 11.6692 0C18.1151 0 23.3384 5.22327 23.3384 11.6692C23.3384 18.1151 18.1158 23.3384 11.6692 23.3384C5.22327 23.3384 0 18.1151 0 11.6692ZM12.1494 15.7694C7.79955 15.7694 5.31939 12.7932 5.21764 7.83282H7.40526C7.47522 11.4704 9.07779 13.0093 10.3496 13.3274V7.83282H12.4038V10.968C13.6565 10.8344 14.9793 9.40359 15.4244 7.82646H17.4722C17.3052 8.64286 16.9717 9.41605 16.4924 10.0977C16.0132 10.7794 15.3985 11.355 14.6868 11.7883C15.481 12.1837 16.1824 12.7429 16.7447 13.429C17.307 14.1153 17.7176 14.9129 17.9491 15.7694H15.6915C15.2083 14.2622 13.9999 13.092 12.4038 12.933V15.7694H12.1494Z" fill="#0E3FFF"/>
</svg>
